:version 1.10
:name ASF
:units
  mass 1
  length 1
  angle deg
:documentation
  ASF file generated by Kaydara
:root
  axis xyz
  order  tx ty tz rx ry rz
  position 0 0 0
  orientation 0 0 0
:bonedata
  begin
    id 1
    name RightUpLegDummy
    direction -0.718183 -0.695806 0.00816078
    length 4.904
    axis 0 0 0 xyz
  end
  begin
    id 2
    name RightUpLeg
    direction -0.0736652 -0.994202 0.0783343
    length 17.4976
    axis -2.72909 -3.00389 -4.00133 xyz
    dof rx ry rz
  end
  begin
    id 3
    name RightLeg
    direction -0.0389037 -0.994596 -0.0962598
    length 16.5821
    axis 3.95836 -18.5909 -4.46993 xyz
    dof rx ry rz
  end
  begin
    id 4
    name RightFoot
    direction -0.311643 -0.412678 0.855906
    length 3.77069
    axis -1.99483 -18.8351 -3.27644 xyz
    dof rx ry rz
  end
  begin
    id 5
    name RightToes
    direction -0.317852 0.0389852 0.947339
    length 3.85082
    axis -2.00228 -18.1713 -3.25211 xyz
    dof rx ry rz
  end
  begin
    id 6
    name SpineDummy
    direction 8.3039e-015 1 4.44677e-016
    length 4.6813
    axis 0 0 0 xyz
  end
  begin
    id 7
    name Spine
    direction -0.000262373 0.999988 0.00493267
    length 10.1015
    axis -0.00246081 0.00062579 0.0150362 xyz
    dof rx ry rz
  end
  begin
    id 8
    name Spine1
    direction 0 0 0
    length 0
    axis -0.00349562 0.000650293 0.0196666 xyz
    dof rx ry rz
  end
  begin
    id 9
    name HEadDummy
    direction -0.000343232 0.999999 0.00123745
    length 3.43865
    axis -0.00349562 0.000650293 0.0196666 xyz
  end
  begin
    id 10
    name HEad
    direction -0.0461221 0.980933 0.188796
    length 5.12695
    axis -0.00351404 -7.04812 0.0199272 xyz
    dof rx ry rz
  end
  begin
    id 11
    name LeftShoulder1Dummy
    direction 0.998904 -0.0399089 -0.0244534
    length 3.5433
    axis -0.00349562 0.000650293 0.0196666 xyz
  end
  begin
    id 12
    name LeftShoulder1
    direction 0.99951 1.64443e-005 0.0312999
    length 4.05031
    axis -0.00349562 0.000650293 0.0196666 xyz
    dof rx ry rz
  end
  begin
    id 13
    name LeftArm
    direction 0.984791 0.0515299 0.165927
    length 12.9126
    axis -64.823 -10.7743 5.20463 xyz
    dof rx ry rz
  end
  begin
    id 14
    name LeftForeArm
    direction 0.984968 0.0534808 0.16425
    length 10.8596
    axis -30.0462 -7.70601 1.87451 xyz
    dof rx ry rz
  end
  begin
    id 15
    name LeftHand
    direction 0.975871 0.0289682 0.216418
    length 6.62295
    axis -20.1348 -6.98077 1.86072 xyz
    dof rx ry rz
  end
  begin
    id 16
    name RightShoulderDummy
    direction -0.998877 -0.0405946 -0.0244307
    length 3.5433
    axis -0.00349562 0.000650293 0.0196666 xyz
  end
  begin
    id 17
    name RightShoulder
    direction -0.998933 -0.0249743 -0.0388558
    length 4.05031
    axis -0.0205316 -4.02113 1.41395 xyz
    dof rx ry rz
  end
  begin
    id 18
    name RightArm
    direction -0.997559 0.068664 0.0127103
    length 12.9638
    axis -67.3882 1.84188 -6.15987 xyz
    dof rx ry rz
  end
  begin
    id 19
    name RightForeArm
    direction -0.991508 0.0912848 0.0926241
    length 10.8312
    axis -22.1975 3.41087 -4.28711 xyz
    dof rx ry rz
  end
  begin
    id 20
    name RightHand
    direction -0.989262 0.0600788 0.133232
    length 6.57864
    axis -12.2911 2.17515 -4.39675 xyz
    dof rx ry rz
  end
  begin
    id 21
    name LeftUpLegDummy
    direction 0.718183 -0.695806 0.00816078
    length 4.904
    axis 0 0 0 xyz
  end
  begin
    id 22
    name LeftUpLeg
    direction 0.0831398 -0.99469 0.0606531
    length 17.4976
    axis -1.71016 2.29552 4.63832 xyz
    dof rx ry rz
  end
  begin
    id 23
    name LeftLeg
    direction 0.0498442 -0.991778 -0.117862
    length 16.5821
    axis 5.13757 15.5727 5.13348 xyz
    dof rx ry rz
  end
  begin
    id 24
    name LeftFoot
    direction 0.269026 -0.433896 0.85986
    length 3.77069
    axis -0.576502 15.6961 4.10267 xyz
    dof rx ry rz
  end
  begin
    id 25
    name LeftToes
    direction 0.277311 0.0251143 0.960452
    length 3.85048
    axis -0.576502 15.6961 4.10267 xyz
    dof rx ry rz
  end
:hierarchy
  begin
    root RightUpLegDummy SpineDummy LeftUpLegDummy
    RightUpLegDummy RightUpLeg
    RightUpLeg RightLeg
    RightLeg RightFoot
    RightFoot RightToes
    SpineDummy Spine
    Spine Spine1
    Spine1 HEadDummy LeftShoulder1Dummy RightShoulderDummy
    HEadDummy HEad
    LeftShoulder1Dummy LeftShoulder1
    LeftShoulder1 LeftArm
    LeftArm LeftForeArm
    LeftForeArm LeftHand
    RightShoulderDummy RightShoulder
    RightShoulder RightArm
    RightArm RightForeArm
    RightForeArm RightHand
    LeftUpLegDummy LeftUpLeg
    LeftUpLeg LeftLeg
    LeftLeg LeftFoot
    LeftFoot LeftToes
  end

:SAMPLES-PER-SECOND 30
:FULLY-SPECIFIED
:DEGREES
138
root  6.16351 18.4106 -6.77305 -130.866 -10.7399 172.282
RightUpLeg  -77.4131 -10.1541 21.2053
RightLeg  131.189 29.0666 -14.2206
RightFoot  -24.3284 -0.0407379 -1.24356
RightToes  -5.82073e-011 -3.18055e-015 -2.98177e-016
Spine  34.0603 -3.3 4.13868
Spine1  2.3993 -5.65341 17.7995
HEad  -35.0477 8.06049 4.44253
LeftShoulder1  -3.88251e-019 9.70628e-020 -3.87848e-018
LeftArm  -6.63218 -9.28207 -66.4286
LeftForeArm  9.88858 -24.5907 3.61443
LeftHand  -11.3922 -13.4456 64.3799
RightShoulder  3.26048 9.38067 13.9164
RightArm  2.23017 14.1764 69.4565
RightForeArm  14.7676 9.01746 -6.14482
RightHand  -13.0241 10.8428 -78.139
LeftUpLeg  -35.6348 -10.2256 7.45172
LeftLeg  93.9996 -15.0835 12.8307
LeftFoot  -33.6696 -6.12671 -32.366
LeftToes  -3.44176e-011 4.05998e-011 -5.21293e-012
139
root  6.40418 18.4368 -7.23541 -130.681 -10.9059 173.359
RightUpLeg  -75.9327 -8.53753 21.604
RightLeg  130.485 27.8395 -13.3135
RightFoot  -22.8912 -0.101687 -2.09456
RightToes  -5.82073e-011 -3.18055e-015 -2.98177e-016
Spine  34.6396 -3.15131 5.09152
Spine1  0.638613 -4.79665 17.3598
HEad  -34.838 7.44945 4.30699
LeftShoulder1  -3.88251e-019 9.70628e-020 -3.87848e-018
LeftArm  -6.59238 -13.6978 -65.6366
LeftForeArm  9.56469 -24.1264 3.2893
LeftHand  -10.3471 -13.3643 59.7264
RightShoulder  3.46728 9.73817 14.6522
RightArm  0.33492 11.1864 69.3194
RightForeArm  16.4075 9.10528 -6.97768
RightHand  -13.3004 10.9573 -78.9343
LeftUpLeg  -34.5368 -8.61342 8.68154
LeftLeg  91.8734 -14.7552 13.8626
LeftFoot  -33.7242 -6.09943 -32.143
LeftToes  -3.44176e-011 4.05998e-011 -5.21293e-012
140
root  6.51257 18.5301 -7.7529 -130.678 -10.4756 175.844
RightUpLeg  -74.6358 -6.59946 22.2834
RightLeg  129.762 26.1288 -11.8519
RightFoot  -20.9531 -0.136741 -3.02821
RightToes  -5.82073e-011 -3.18055e-015 -2.98177e-016
Spine  36.2088 -3.21826 6.92167
Spine1  -1.90696 -3.44866 15.2524
HEad  -34.8025 7.52626 4.03992
LeftShoulder1  -3.88251e-019 9.70628e-020 -3.87848e-018
LeftArm  -7.06107 -19.2555 -64.2113
LeftForeArm  12.0936 -22.16 1.89553
LeftHand  -9.36614 -13.0234 55.8192
RightShoulder  3.62219 10.0573 15.1096
RightArm  -1.44125 8.02647 69.8507
RightForeArm  17.6973 9.5803 -7.76383
RightHand  -13.475 10.9702 -79.6302
LeftUpLeg  -32.7804 -5.96736 10.1039
LeftLeg  89.3316 -14.273 15.0924
LeftFoot  -33.5303 -6.03024 -32.0865
LeftToes  -3.44176e-011 4.05998e-011 -5.21293e-012
141
root  6.5723 18.492 -8.32553 -129.69 -8.74748 178.461
RightUpLeg  -73.9999 -4.26692 22.3513
RightLeg  129.372 24.4259 -10.1752
RightFoot  -20.046 -0.18665 -4.19023
RightToes  -5.82073e-011 -3.18055e-015 -2.98177e-016
Spine  36.9744 -2.5864 7.07765
Spine1  -4.09519 -2.13283 13.5954
HEad  -34.997 8.0978 3.57382
LeftShoulder1  -3.88251e-019 9.70628e-020 -3.87848e-018
LeftArm  -8.53868 -24.7814 -62.723
LeftForeArm  16.0979 -19.0153 0.203444
LeftHand  -8.71819 -12.2865 54.4254
RightShoulder  3.75455 10.2722 15.5695
RightArm  -2.89866 5.09963 70.8071
RightForeArm  19.229 10.2419 -8.37467
RightHand  -13.6484 10.9874 -80.2995
LeftUpLeg  -31.2739 -2.52019 10.4971
LeftLeg  86.7742 -13.6742 16.0311
LeftFoot  -33.2761 -6.03697 -32.5129
LeftToes  -3.44176e-011 4.05998e-011 -5.21293e-012
142
root  6.61222 18.3803 -8.98486 -128.167 -6.79251 -179.064
RightUpLeg  -72.7746 -1.88057 22.0608
RightLeg  128.592 22.8501 -8.6577
RightFoot  -20.7578 -0.323931 -5.91003
RightToes  -5.82073e-011 -3.18055e-015 -2.98177e-016
Spine  36.5748 -1.08573 6.25133
Spine1  -5.15482 -0.658055 13.3832
HEad  -35.2653 7.84189 2.61953
LeftShoulder1  -3.88251e-019 9.70628e-020 -3.87848e-018
LeftArm  -9.04249 -28.2476 -62.3436
LeftForeArm  18.1619 -15.3313 -1.08695
LeftHand  -8.57931 -11.5558 55.6917
RightShoulder  3.95793 10.4296 16.5049
RightArm  -3.72973 2.85192 70.6158
RightForeArm  21.0792 10.9577 -8.7581
RightHand  -13.8563 11.0745 -80.8631
LeftUpLeg  -30.0656 0.814906 10.5953
LeftLeg  84.4388 -13.0515 16.2185
LeftFoot  -32.6053 -6.02467 -33.5484
LeftToes  -3.44176e-011 4.05998e-011 -5.21293e-012
143
root  6.5872 18.3706 -9.74993 -126.736 -5.61327 -176.641
RightUpLeg  -70.7843 0.4069 21.705
RightLeg  126.924 21.2989 -7.26368
RightFoot  -21.7867 -0.47768 -7.33569
RightToes  -5.82073e-011 -3.18055e-015 -2.98177e-016
Spine  35.6844 0.455414 6.76929
Spine1  -5.37574 1.22894 12.6163
HEad  -35.3916 5.86204 1.59391
LeftShoulder1  -3.88251e-019 9.70628e-020 -3.87848e-018
LeftArm  -7.40642 -29.0354 -63.6924
LeftForeArm  17.4645 -12.5732 -2.11912
LeftHand  -8.80017 -11.1391 58.1386
RightShoulder  4.28094 10.5451 18.1566
RightArm  -3.76937 1.35859 68.3583
RightForeArm  22.3531 11.7694 -8.89315
RightHand  -14.0718 11.1964 -81.3279
LeftUpLeg  -29.4315 3.21551 11.1279
LeftLeg  82.5863 -12.5389 16.3795
LeftFoot  -29.9082 -5.41338 -35.0144
LeftToes  -3.44176e-011 4.05998e-011 -5.21293e-012
144
root  6.53183 18.4833 -10.5472 -124.871 -4.73621 -175.36
RightUpLeg  -69.8657 2.22056 20.747
RightLeg  124.926 20.1264 -6.22096
RightFoot  -21.9168 -0.477269 -7.19983
RightToes  -5.82073e-011 -3.18055e-015 -2.98177e-016
Spine  34.4507 1.57159 7.99836
Spine1  -5.45184 2.89989 10.3689
HEad  -35.5625 2.72805 1.2884
LeftShoulder1  -3.88251e-019 9.70628e-020 -3.87848e-018
LeftArm  -5.82054 -28.9191 -66.0814
LeftForeArm  17.3357 -11.2686 -3.25699
LeftHand  -9.19841 -11.0702 60.5349
RightShoulder  4.68138 10.5908 20.3174
RightArm  -3.59444 0.246757 65.0011
RightForeArm  22.6351 12.7271 -9.03456
RightHand  -14.2993 11.3242 -81.812
LeftUpLeg  -30.8983 4.08476 10.8441
LeftLeg  81.9038 -12.3019 17.6411
LeftFoot  -23.8644 -3.44647 -34.5049
LeftToes  -3.44176e-011 4.05998e-011 -5.21293e-012
145
root  6.48389 18.6536 -11.2554 -123.233 -4.22231 -176.235
RightUpLeg  -69.6146 1.90685 19.4011
RightLeg  123.041 19.7964 -6.15478
RightFoot  -21.7109 -0.294754 -4.92555
RightToes  -5.82073e-011 -3.18055e-015 -2.98177e-016
Spine  33.866 1.89083 8.50157
Spine1  -5.99299 3.43019 8.42062
HEad  -36.2267 -0.469365 1.54084
LeftShoulder1  -3.88251e-019 9.70628e-020 -3.87848e-018
LeftArm  -4.92413 -29.6863 -68.7158
LeftForeArm  18.6106 -10.1028 -4.31743
LeftHand  -9.74314 -11.2103 63.004
RightShoulder  5.05303 10.5944 22.3586
RightArm  -3.84639 -1.08668 61.8587
RightForeArm  22.578 14.0781 -9.505
RightHand  -14.4551 11.4753 -81.9263
LeftUpLeg  -34.4854 2.67137 9.32408
LeftLeg  83.2846 -12.6885 19.1047
LeftFoot  -16.6651 -0.988437 -28.9026
LeftToes  -3.44176e-011 4.05998e-011 -5.21293e-012
146
root  6.45857 18.7959 -11.8297 -122.18 -4.1662 -178.54
RightUpLeg  -69.0266 -0.46063 18.5266
RightLeg  121.05 20.4122 -7.50576
RightFoot  -22.2667 -0.0658629 -1.77263
RightToes  -5.82073e-011 -3.18055e-015 -2.98177e-016
Spine  34.1912 1.9495 7.69861
Spine1  -7.19644 3.0863 8.56419
HEad  -37.4059 -3.39026 1.44795
LeftShoulder1  -3.88251e-019 9.70628e-020 -3.87848e-018
LeftArm  -4.29805 -31.1487 -71.5733
LeftForeArm  20.2016 -8.00527 -5.31195
LeftHand  -10.336 -11.3832 65.5162
RightShoulder  5.33806 10.6061 23.8929
RightArm  -3.61458 -2.75686 58.8045
RightForeArm  22.0967 16.129 -10.121
RightHand  -14.2153 11.5727 -80.6356
LeftUpLeg  -39.1806 0.314464 7.31315
LeftLeg  87.0124 -13.92 19.579
LeftFoot  -12.7446 0.0501458 -19.5142
LeftToes  -3.44176e-011 4.05998e-011 -5.21293e-012
147
root  6.45293 18.9199 -12.3812 -121.572 -4.36179 179.455
RightUpLeg  -67.5595 -3.07828 18.4473
RightLeg  118.42 21.338 -9.7212
RightFoot  -23.6369 0.138403 0.672579
RightToes  -5.82073e-011 -3.18055e-015 -2.98177e-016
Spine  34.8996 2.20548 6.42886
Spine1  -8.52203 2.80441 9.32344
HEad  -38.6533 -6.00885 0.938355
LeftShoulder1  -3.88251e-019 9.70628e-020 -3.87848e-018
LeftArm  -3.27603 -32.1327 -74.2004
LeftForeArm  21.0937 -5.82124 -6.29373
LeftHand  -10.8179 -11.5418 67.4127
RightShoulder  5.50772 10.6125 24.8005
RightArm  -1.32448 -4.55673 55.6686
RightForeArm  19.451 18.4958 -10.6965
RightHand  -13.3083 11.4272 -77.3549
LeftUpLeg  -43.9035 -0.67679 5.58396
LeftLeg  92.342 -15.7546 19.8954
LeftFoot  -13.4499 -0.0532143 -10.7797
LeftToes  -3.44176e-011 4.05998e-011 -5.21293e-012
